PathFileType	4	(X/Y/Z)	D:\TRACE\spotREDO_2-26-24\spot_justBody_Motion_2_5-v60.trc
DataRate	CameraRate	NumFrames	NumMarkers	Units	OrigDataRate	OrigDataStartFrame	OrigNumFrames
100.00	100.00	      14	9	mm	100.00	3501	      7000
Frame#	Time	front left toe			Front right toe			aft left toe			aft right toe			Arm			FL body			FR body			AL Body			AR Body			
		X1	Y1	Z1	X2	Y2	Z2	X3	Y3	Z3	X4	Y4	Z4	X5	Y5	Z5	X6	Y6	Z6	X7	Y7	Z7	X8	Y8	Z8	X9	Y9	Z9	

3501	35.000	-199.53252	19.09482	-45.57043	294.71039	17.47341	-104.47356	-143.16478	41.55322	388.65295	303.28012	37.73002	322.73557	27.97837	796.23608	-329.63223	-45.32611	537.08405	-281.86969	108.64524	544.01721	-304.36948	68.44772	594.58447	592.88507	216.46675	597.16742	573.89825	
3502	35.010	-198.73183	19.37506	-45.41977	295.75320	17.73402	-104.15697	-142.47252	40.77759	389.12125	304.60608	37.12123	323.13312	28.28462	796.49298	-329.61682	-45.02741	537.49097	-282.05557	108.89505	544.32916	-304.49579	69.11961	594.18268	592.84082	217.10344	596.70984	573.70837	
3503	35.020	-197.41983	19.51478	-45.25342	296.79221	18.11798	-103.85764	-141.24921	40.00523	389.59268	305.57803	36.63146	323.42664	28.67381	796.99646	-329.30103	-44.62482	537.78223	-282.21024	109.53191	544.64368	-304.51932	69.25208	594.04523	592.28967	217.51036	596.33789	573.66766	
3504	35.030	-196.44714	19.54504	-44.83428	297.65686	18.42044	-103.65703	-140.24544	39.24019	389.51163	306.46536	36.26051	323.69162	29.34876	797.24847	-328.98843	-44.24513	537.84259	-282.25565	109.84734	544.82452	-304.54483	69.81449	593.56403	592.48730	217.69977	595.84558	573.62323	
3505	35.040	-195.16335	19.61466	-44.49745	298.73563	18.76613	-103.45271	-139.29752	38.20826	389.82831	307.67038	35.71254	324.02518	29.91829	797.22034	-328.89981	-43.70434	537.90863	-282.30801	110.19811	544.85730	-304.54514	70.44607	592.63245	592.94806	217.78513	595.16962	573.82953	
3506	35.050	-194.27295	20.00775	-44.36563	300.11459	19.17647	-103.08986	-137.95334	37.18865	390.26196	308.93976	35.31691	324.51657	30.39830	797.28619	-328.92160	-43.21590	537.94476	-282.28458	110.83998	544.87738	-304.41342	70.43867	592.51099	592.62653	218.19568	594.75476	573.97150	
3507	35.060	-192.79890	19.76674	-43.94998	301.06747	19.55892	-102.83681	-137.17928	36.50809	390.38226	309.97592	34.46091	324.75940	31.05890	797.36798	-328.64880	-42.85341	537.95831	-282.24173	111.53844	544.98767	-304.32230	70.56664	592.01813	592.64099	218.49524	594.32965	574.14172	
3508	35.070	-191.95163	20.00841	-43.70072	301.98895	19.75261	-102.57813	-135.80229	35.60366	390.70996	310.90845	34.05257	325.05948	31.51998	797.43121	-328.40146	-42.41833	538.06915	-282.18634	111.97475	545.02142	-304.23431	71.07778	591.20404	593.17523	218.80405	593.92957	574.38971	
3509	35.080	-191.04715	20.34859	-43.48906	302.87799	19.98003	-102.21026	-134.71164	34.73162	391.15991	312.14612	33.55095	325.25961	32.03051	797.41229	-328.08377	-41.80383	538.18219	-282.00009	112.53281	545.12836	-304.06287	71.23598	590.87238	593.27161	219.24452	593.46552	574.70618	
3510	35.090	-189.84703	20.34804	-42.95743	304.27325	20.38635	-101.70565	-134.14299	34.17553	391.27405	313.00659	32.82436	325.57285	32.60544	797.44568	-327.80710	-41.13091	538.08551	-281.65625	112.68339	544.97943	-304.08063	71.23646	590.71698	592.95807	219.40276	592.84253	574.97809	
3511	35.100	-189.02428	20.31453	-42.62756	305.07495	20.73643	-101.54849	-132.80751	33.05918	391.62933	314.06445	31.93473	325.89648	33.11876	797.34467	-327.69214	-40.87666	538.12012	-281.42584	113.03867	544.88409	-303.92303	71.97768	589.85046	593.69733	219.45964	592.30084	575.13550	
3512	35.110	-187.77855	20.44304	-42.35165	305.93387	20.84642	-101.43657	-131.88370	32.03944	391.99100	314.84692	31.35173	326.07816	33.69655	797.20758	-327.43585	-40.53382	538.05457	-281.35529	113.64439	544.83594	-303.52820	72.46064	589.34003	594.00519	219.87219	591.89722	575.42444	
3513	35.120	-186.95140	20.76947	-42.08006	307.19370	21.22876	-100.93289	-130.55019	31.15454	392.36041	316.24139	30.85942	326.63620	34.51223	797.24854	-326.85190	-40.29864	538.23767	-281.19821	114.35950	544.73090	-303.13174	72.98817	588.89996	594.41748	220.25284	591.37860	575.68384	
3514	35.130	-185.42574	20.76637	-41.55569	308.21820	21.75909	-100.47488	-129.72137	30.50864	392.51263	317.39890	30.07423	326.99426	34.95557	797.29901	-326.50580	-39.68197	538.20624	-280.93729	114.70493	544.57135	-302.90317	72.88824	588.89502	594.10730	221.36276	590.90747	576.50061	
